<svg width="32" height="32" viewBox="0 0 32 32" fill="none" xmlns="http://www.w3.org/2000/svg">
<path d="M27.2216 12.3722C27.5685 11.9427 28.1982 11.8752 28.6278 12.2218C29.0573 12.5687 29.1248 13.1984 28.7782 13.6281C28.1388 14.4196 27.337 15.2878 26.3641 16.1232L28.8681 20.5031C29.1421 20.9826 28.9755 21.5943 28.496 21.8683C28.0167 22.1421 27.4059 21.9753 27.1317 21.4962L24.7606 17.3478C23.4829 18.2065 21.9851 18.9514 20.2528 19.4318L20.9872 23.8351C21.0779 24.3796 20.7093 24.8944 20.1649 24.9855C19.6202 25.0762 19.1044 24.7089 19.0136 24.1642L18.2929 19.84C17.564 19.943 16.8 20.0001 15.9999 20.0001C15.1994 20.0001 14.4351 19.9431 13.7059 19.84L12.9862 24.1642C12.8953 24.7087 12.3804 25.0761 11.8358 24.9855C11.2912 24.8946 10.9228 24.3798 11.0136 23.8351L11.746 19.4318C10.0139 18.9514 8.51673 18.2055 7.23915 17.3468L4.86806 21.4962C4.59398 21.9754 3.98315 22.1421 3.5038 21.8683C3.02448 21.5942 2.85774 20.9825 3.13173 20.5031L5.63466 16.1232C4.66205 15.2879 3.86082 14.4194 3.22157 13.6281C2.87499 13.1985 2.94261 12.5687 3.37196 12.2218C3.80158 11.8752 4.43129 11.9427 4.77821 12.3722C6.78046 14.8507 10.3759 18.0001 15.9999 18.0001C21.6239 18.0001 25.2193 14.8507 27.2216 12.3722Z" fill="#E65E1A"/>
</svg>
