<svg width="136" height="48" viewBox="0 0 136 48" fill="none" xmlns="http://www.w3.org/2000/svg">
<path d="M128.2 46.392C126.505 46.392 125.1 45.8547 123.984 44.78C122.909 43.664 122.372 42.2587 122.372 40.564C122.372 38.828 122.909 37.4227 123.984 36.348C125.1 35.2733 126.505 34.736 128.2 34.736C129.894 34.736 131.279 35.2733 132.354 36.348C133.47 37.4227 134.028 38.828 134.028 40.564C134.028 42.2173 133.47 43.602 132.354 44.718C131.238 45.834 129.853 46.392 128.2 46.392Z" fill="#F86C26"/>
<path d="M119.437 11.548C119.437 11.8373 119.354 12.0647 119.189 12.23C119.023 12.3953 118.796 12.478 118.507 12.478H106.665C106.417 12.478 106.293 12.602 106.293 12.85V18.802C106.293 19.05 106.417 19.174 106.665 19.174H112.803C113.092 19.174 113.319 19.2567 113.485 19.422C113.65 19.5873 113.733 19.8147 113.733 20.104V28.226C113.733 28.5153 113.65 28.7427 113.485 28.908C113.319 29.0733 113.092 29.156 112.803 29.156H106.665C106.417 29.156 106.293 29.28 106.293 29.528V35.542C106.293 35.79 106.417 35.914 106.665 35.914H118.507C118.796 35.914 119.023 35.9967 119.189 36.162C119.354 36.3273 119.437 36.5547 119.437 36.844V44.966C119.437 45.2553 119.354 45.4827 119.189 45.648C119.023 45.8133 118.796 45.896 118.507 45.896H95.5667C95.2774 45.896 95.0501 45.8133 94.8847 45.648C94.7194 45.4827 94.6367 45.2553 94.6367 44.966V3.426C94.6367 3.13667 94.7194 2.90934 94.8847 2.744C95.0501 2.57867 95.2774 2.496 95.5667 2.496H118.507C118.796 2.496 119.023 2.57867 119.189 2.744C119.354 2.90934 119.437 3.13667 119.437 3.426V11.548Z" fill="#F86C26"/>
<path d="M79.5431 2.496C82.0231 2.496 84.2138 3.09534 86.1151 4.294C88.0578 5.45134 89.5665 7.08401 90.6411 9.19201C91.7158 11.3 92.2531 13.718 92.2531 16.446C92.2531 19.0913 91.7364 21.4267 90.7031 23.452C89.7111 25.4773 88.3058 27.048 86.4871 28.164C84.6685 29.2387 82.5604 29.776 80.1631 29.776H76.6911C76.4431 29.776 76.3191 29.9 76.3191 30.148V44.966C76.3191 45.2553 76.2365 45.4827 76.0711 45.648C75.9058 45.8133 75.6785 45.896 75.3891 45.896H65.5931C65.3038 45.896 65.0765 45.8133 64.9111 45.648C64.7458 45.4827 64.6631 45.2553 64.6631 44.966V3.426C64.6631 3.13667 64.7458 2.90934 64.9111 2.744C65.0765 2.57867 65.3038 2.496 65.5931 2.496H79.5431ZM77.4971 20.786C78.4478 20.786 79.1918 20.4553 79.7291 19.794C80.3078 19.0913 80.5971 18.058 80.5971 16.694C80.5971 15.33 80.3078 14.2967 79.7291 13.594C79.1918 12.85 78.4478 12.478 77.4971 12.478H76.6911C76.4431 12.478 76.3191 12.602 76.3191 12.85V20.414C76.3191 20.662 76.4431 20.786 76.6911 20.786H77.4971Z" fill="#F86C26"/>
<path d="M48.1479 46.392C43.9732 46.392 40.6252 45.1933 38.1039 42.796C35.6239 40.3987 34.3839 37.1747 34.3839 33.124V15.268C34.3839 11.2173 35.6239 7.99333 38.1039 5.596C40.6252 3.19866 43.9732 2 48.1479 2C52.3225 2 55.6499 3.19866 58.1299 5.596C60.6512 7.99333 61.9119 11.2173 61.9119 15.268V33.124C61.9119 37.1747 60.6512 40.3987 58.1299 42.796C55.6499 45.1933 52.3225 46.392 48.1479 46.392ZM48.1479 36.41C48.8092 36.41 49.3259 36.162 49.6979 35.666C50.0699 35.17 50.2559 34.488 50.2559 33.62V14.772C50.2559 13.904 50.0699 13.222 49.6979 12.726C49.3259 12.23 48.8092 11.982 48.1479 11.982C47.4865 11.982 46.9699 12.23 46.5979 12.726C46.2259 13.222 46.0399 13.904 46.0399 14.772V33.62C46.0399 34.488 46.2259 35.17 46.5979 35.666C46.9699 36.162 47.4865 36.41 48.1479 36.41Z" fill="#F86C26"/>
<path d="M19.98 3.426C19.98 3.13667 20.0627 2.90934 20.228 2.744C20.3933 2.57867 20.6207 2.496 20.91 2.496H30.582C30.8713 2.496 31.0987 2.57867 31.264 2.744C31.4293 2.90934 31.512 3.13667 31.512 3.426V44.966C31.512 45.2553 31.4293 45.4827 31.264 45.648C31.0987 45.8133 30.8713 45.896 30.582 45.896H19.546C19.0087 45.896 18.678 45.6273 18.554 45.09L13.842 26.304C13.8007 26.18 13.718 26.118 13.594 26.118C13.47 26.118 13.408 26.2007 13.408 26.366L13.532 44.966C13.532 45.2553 13.4493 45.4827 13.284 45.648C13.1187 45.8133 12.8913 45.896 12.602 45.896H2.93C2.64067 45.896 2.41333 45.8133 2.248 45.648C2.08267 45.4827 2 45.2553 2 44.966V3.426C2 3.13667 2.08267 2.90934 2.248 2.744C2.41333 2.57867 2.64067 2.496 2.93 2.496H13.842C14.3793 2.496 14.71 2.76467 14.834 3.302L19.608 22.15C19.6493 22.3153 19.732 22.398 19.856 22.398C19.98 22.398 20.042 22.3153 20.042 22.15L19.98 3.426Z" fill="#F86C26"/>
</svg>
