<svg width="32" height="32" viewBox="0 0 32 32" fill="none" xmlns="http://www.w3.org/2000/svg">
<path d="M20 14.5V7.5C20 7.10218 19.8419 6.72076 19.5605 6.43945C19.2792 6.15815 18.8978 6 18.5 6C18.1022 6 17.7208 6.15815 17.4395 6.43945C17.1581 6.72076 17 7.10218 17 7.5C17 8.05228 16.5523 8.5 16 8.5C15.4477 8.5 15 8.05228 15 7.5C15 6.57174 15.369 5.68177 16.0254 5.02539C16.6818 4.36901 17.5717 4 18.5 4C19.4283 4 20.3182 4.36901 20.9746 5.02539C21.631 5.68177 22 6.57174 22 7.5V14.5C22 15.0523 21.5523 15.5 21 15.5C20.4477 15.5 20 15.0523 20 14.5Z" fill="#E65E1A"/>
<path d="M15 14V5.5C15 5.10218 14.8419 4.72076 14.5605 4.43945C14.2792 4.15815 13.8978 4 13.5 4C13.1022 4 12.7208 4.15815 12.4395 4.43945C12.1581 4.72076 12 5.10218 12 5.5V9.5C12 10.0523 11.5523 10.5 11 10.5C10.4477 10.5 10 10.0523 10 9.5V5.5C10 4.57174 10.369 3.68177 11.0254 3.02539C11.6818 2.36901 12.5717 2 13.5 2C14.4283 2 15.3182 2.36901 15.9746 3.02539C16.631 3.68177 17 4.57174 17 5.5V14C17 14.5523 16.5523 15 16 15C15.4477 15 15 14.5523 15 14Z" fill="#E65E1A"/>
<path d="M10 15V9.5C10 9.10218 9.84185 8.72076 9.56055 8.43945C9.27924 8.15815 8.89782 8 8.5 8C8.10218 8 7.72076 8.15815 7.43945 8.43945C7.15815 8.72076 7 9.10218 7 9.5V19C7 21.3869 7.94791 23.6764 9.63574 25.3643C11.3236 27.0521 13.6131 28 16 28C18.3869 28 20.6764 27.0521 22.3643 25.3643C24.0521 23.6764 25 21.3869 25 19V14.5C25 14.1022 24.8419 13.7208 24.5605 13.4395C24.2792 13.1581 23.8978 13 23.5 13C23.1022 13 22.7208 13.1581 22.4395 13.4395C22.1581 13.7208 22 14.1022 22 14.5V17C22 17.5523 21.5523 18 21 18C19.9391 18 18.922 18.4217 18.1719 19.1719C17.4217 19.922 17 20.9391 17 22C17 22.5523 16.5523 23 16 23C15.4477 23 15 22.5523 15 22C15 20.4087 15.6326 18.883 16.7578 17.7578C17.6445 16.8712 18.7798 16.2913 20 16.085V14.5C20 13.5717 20.369 12.6818 21.0254 12.0254C21.6818 11.369 22.5717 11 23.5 11C24.4283 11 25.3182 11.369 25.9746 12.0254C26.631 12.6818 27 13.5717 27 14.5V19C27 21.9174 25.8412 24.7154 23.7783 26.7783C21.7154 28.8412 18.9174 30 16 30C13.0826 30 10.2846 28.8412 8.22168 26.7783C6.15878 24.7154 5 21.9174 5 19V9.5C5 8.57174 5.36901 7.68177 6.02539 7.02539C6.68177 6.36901 7.57174 6 8.5 6C9.42826 6 10.3182 6.36901 10.9746 7.02539C11.631 7.68177 12 8.57174 12 9.5V15C12 15.5523 11.5523 16 11 16C10.4477 16 10 15.5523 10 15Z" fill="#E65E1A"/>
</svg>
