<svg width="32" height="32" viewBox="0 0 32 32" fill="none" xmlns="http://www.w3.org/2000/svg">
<path d="M7.44119 10.8872C8.26303 10.3384 9.26798 10.1354 10.2381 10.3237L10.2371 10.3247L12.8377 10.8237H12.8396C13.3259 10.9182 13.7885 11.1089 14.201 11.3833C14.6135 11.6577 14.9678 12.0113 15.2429 12.4233C15.518 12.8353 15.7091 13.2976 15.8045 13.7837C15.8998 14.2698 15.8977 14.77 15.7986 15.2554C15.6995 15.7408 15.5056 16.2019 15.2273 16.6118C14.949 17.0217 14.5921 17.3728 14.1775 17.644C13.7629 17.9152 13.2983 18.1011 12.8113 18.1919C12.3327 18.2811 11.8416 18.2749 11.365 18.1763L8.76443 17.6772C8.75586 17.6756 8.7466 17.6742 8.73806 17.6723C7.77168 17.4654 6.92557 16.8852 6.38455 16.0581C5.84363 15.231 5.65173 14.2237 5.84939 13.2554C6.04709 12.2869 6.61923 11.4361 7.44119 10.8872ZM9.7615 12.7788C9.43809 12.716 9.10287 12.7833 8.82888 12.9663C8.55507 13.1493 8.36449 13.4327 8.29861 13.7554C8.23271 14.0782 8.29696 14.4142 8.47732 14.6899C8.65526 14.9618 8.93215 15.1528 9.24881 15.2241L11.8377 15.7222L11.8631 15.728C12.0244 15.7625 12.1911 15.7641 12.3533 15.7339C12.5156 15.7036 12.6702 15.6416 12.8084 15.5513C12.9466 15.4608 13.0662 15.3441 13.159 15.2075C13.2517 15.0709 13.3164 14.9171 13.3494 14.7554C13.3824 14.5937 13.3831 14.427 13.3513 14.2651C13.3196 14.1031 13.2556 13.9484 13.1638 13.811C13.0722 13.6738 12.9545 13.5557 12.8172 13.4643C12.6797 13.3729 12.5251 13.3103 12.3631 13.2788L9.76443 12.7788H9.7615Z" fill="#F86C26"/>
<path d="M5.75 19.0903C5.75 18.4 6.30964 17.8403 7 17.8403C7.69036 17.8403 8.25 18.4 8.25 19.0903V20.0005C8.25003 21.0231 8.45259 22.0359 8.8457 22.98C9.23887 23.924 9.81518 24.7811 10.541 25.5014C11.2669 26.2218 12.1282 26.7913 13.0752 27.1772C14.0223 27.5632 15.0369 27.7583 16.0596 27.7505C20.3151 27.7182 23.75 24.1834 23.75 19.8872V19.4702C23.75 18.372 23.3691 17.3077 22.6729 16.4585C21.9767 15.6094 21.0083 15.0273 19.9316 14.812L17.2617 14.2778C16.9383 14.215 16.6031 14.2833 16.3291 14.4663C16.0552 14.6493 15.8645 14.9326 15.7986 15.2554C15.7327 15.5782 15.7972 15.9142 15.9775 16.1899C16.1563 16.4629 16.4346 16.6545 16.7529 16.7251L18.666 17.1079C19.055 17.1856 19.3841 17.4433 19.5527 17.8022C19.7213 18.1614 19.7094 18.5802 19.5205 18.9292C19.2917 19.352 19.2046 19.8369 19.2715 20.313C19.3384 20.7891 19.556 21.2313 19.8926 21.5747C20.3758 22.0676 20.3678 22.859 19.875 23.3423C19.382 23.8256 18.5907 23.8177 18.1074 23.3247C17.3969 22.5999 16.9373 21.6667 16.7959 20.6616C16.7313 20.2021 16.7367 19.7386 16.8057 19.2856L16.2549 19.1763C16.2493 19.1751 16.2438 19.1735 16.2383 19.1723C15.2718 18.9655 14.4258 18.3852 13.8848 17.5581C13.3438 16.731 13.1518 15.7237 13.3494 14.7554C13.5471 13.7871 14.1187 12.9361 14.9404 12.3872C15.7109 11.8727 16.6429 11.6625 17.5557 11.7934L17.7383 11.8237L17.7451 11.8257L20.4209 12.3608C22.0645 12.6894 23.5438 13.5773 24.6064 14.8735C25.6691 16.1697 26.25 17.7941 26.25 19.4702V19.8872C26.25 25.5159 21.7475 30.2067 16.0781 30.2495C14.7256 30.2598 13.3844 30.0031 12.1318 29.4927C10.8794 28.9822 9.74031 28.2285 8.78027 27.2759C7.82026 26.3231 7.05808 25.1895 6.53809 23.9409C6.01809 22.6922 5.74996 21.3522 5.75 19.9995V19.0903Z" fill="#F86C26"/>
<path d="M7.44119 15.9772C8.21186 15.4626 9.14344 15.2523 10.0564 15.3834L10.2381 15.4137L10.2449 15.4157L11.4998 15.6666C12.4744 15.8655 13.3302 16.4433 13.8787 17.2731C14.4272 18.1029 14.6235 19.1168 14.4246 20.0914C14.2256 21.0659 13.6479 21.9219 12.8181 22.4704C11.9884 23.0188 10.9743 23.2151 9.99978 23.0163L8.75369 22.7653C8.7486 22.7643 8.74315 22.7634 8.73806 22.7623C7.77168 22.5554 6.92557 21.9751 6.38455 21.1481C5.84363 20.321 5.65173 19.3137 5.84939 18.3454C6.04709 17.3769 6.61923 16.5261 7.44119 15.9772ZM9.7615 17.8678C9.43814 17.8051 9.10282 17.8734 8.82888 18.0563C8.55508 18.2393 8.36449 18.5227 8.29861 18.8454C8.23272 19.1682 8.29696 19.5042 8.47732 19.7799C8.65544 20.0521 8.93274 20.243 9.24978 20.3141L10.4959 20.5661H10.4998C10.8247 20.6324 11.1626 20.5672 11.4392 20.3844C11.7159 20.2016 11.909 19.9164 11.9754 19.5914C12.0417 19.2665 11.9756 18.9287 11.7928 18.652C11.6099 18.3753 11.3247 18.1822 10.9998 18.1159L9.7615 17.8678Z" fill="#F86C26"/>
<path d="M12.5174 1.83177C12.999 1.70274 13.5019 1.67054 13.9959 1.73802C14.4897 1.8055 14.9651 1.971 15.3943 2.22434C15.8237 2.4778 16.1982 2.81468 16.4959 3.21458C16.7887 3.60792 17.0011 4.05491 17.1219 4.53001L19.3533 12.8562C19.532 13.523 19.1364 14.2087 18.4695 14.3874C17.8029 14.5659 17.118 14.1703 16.9393 13.5036L14.7078 5.17747C14.7058 5.16976 14.7039 5.16178 14.702 5.15403C14.6621 4.99284 14.5901 4.84096 14.491 4.70774C14.3918 4.57453 14.2668 4.46213 14.1238 4.37767C13.9807 4.29318 13.8217 4.23805 13.657 4.21556C13.4925 4.19311 13.3253 4.20385 13.1648 4.24681C13.0044 4.28979 12.8538 4.36383 12.7225 4.46556C12.5911 4.56736 12.4809 4.69486 12.3992 4.83958C12.3177 4.9841 12.2662 5.14353 12.2469 5.30833C12.2276 5.47332 12.2409 5.64091 12.2869 5.80052C12.2892 5.80827 12.2917 5.81616 12.2938 5.82395L13.8787 11.7429C14.0573 12.4097 13.6617 13.0955 12.9949 13.2741C12.3281 13.4527 11.6423 13.0562 11.4637 12.3894L9.87872 6.47044L9.87969 6.46946C9.74696 5.99787 9.70657 5.50506 9.76348 5.01829C9.82138 4.52312 9.97738 4.04423 10.2225 3.61009C10.4676 3.17598 10.7972 2.79535 11.1912 2.48997C11.5852 2.18465 12.0359 1.96079 12.5174 1.83177Z" fill="#F86C26"/>
<path d="M21.6437 2.28178C22.4987 1.79919 23.5088 1.67128 24.4571 1.92533C25.4057 2.17947 26.2167 2.79554 26.7159 3.64115C27.2151 4.48675 27.3628 5.49456 27.1271 6.44779C27.1251 6.45555 27.1233 6.46351 27.1212 6.47123L24.6359 15.7447C24.4572 16.4114 23.7723 16.8069 23.1056 16.6285C22.4389 16.4498 22.0433 15.7649 22.2218 15.0982L24.7013 5.84037C24.7775 5.52466 24.7288 5.19149 24.5636 4.91166C24.3973 4.62993 24.1266 4.42514 23.8107 4.34037C23.4945 4.25567 23.1572 4.29764 22.8722 4.45854C22.5871 4.61945 22.3771 4.88625 22.2862 5.20072L20.0245 13.6372C19.8458 14.304 19.161 14.6996 18.4943 14.521C17.8274 14.3423 17.4317 13.6566 17.6105 12.9898L19.878 4.52983L19.8839 4.50736C20.1564 3.56394 20.7885 2.76452 21.6437 2.28178Z" fill="#F86C26"/>
</svg>
