<svg width="32" height="32" viewBox="0 0 32 32" fill="none" xmlns="http://www.w3.org/2000/svg">
<path d="M7.57986 11.0942C8.3463 10.5826 9.28357 10.3947 10.1883 10.5698L10.1892 10.5688L12.7898 11.0688L12.7918 11.0698C13.2457 11.158 13.6782 11.3352 14.0633 11.5913C14.4481 11.8474 14.7782 12.1775 15.0349 12.562C15.2917 12.9465 15.4703 13.3778 15.5594 13.8315C15.6484 14.2853 15.646 14.7525 15.5535 15.2055C15.461 15.6585 15.2799 16.0887 15.0203 16.4712C14.7606 16.8536 14.4276 17.181 14.0408 17.4341C13.6538 17.6872 13.22 17.8611 12.7654 17.9458C12.3178 18.0292 11.8585 18.0237 11.4129 17.9311L8.81131 17.4321C8.8045 17.4308 8.79758 17.4297 8.7908 17.4282C7.88877 17.2351 7.09952 16.6933 6.59451 15.9214C6.0895 15.1494 5.90902 14.209 6.09353 13.3052C6.27806 12.4013 6.81271 11.6065 7.57986 11.0942ZM9.80935 12.5327C9.42125 12.4573 9.019 12.5387 8.69021 12.7583C8.36151 12.9778 8.13256 13.3182 8.05349 13.7055C7.97449 14.0929 8.05194 14.4958 8.26834 14.8266C8.48478 15.1574 8.82325 15.3894 9.20974 15.4721L11.7898 15.9682L11.8103 15.9721C12.0041 16.0136 12.2044 16.0163 12.3992 15.98C12.594 15.9437 12.7802 15.8687 12.9461 15.7602C13.1116 15.6519 13.2538 15.5118 13.365 15.3481C13.4763 15.1842 13.5549 14.9993 13.5945 14.8052C13.6341 14.6111 13.6346 14.4107 13.5965 14.2163C13.5583 14.0219 13.4819 13.8371 13.3719 13.6723C13.2618 13.5075 13.1199 13.3661 12.9549 13.2563C12.7905 13.1471 12.6065 13.0706 12.4129 13.0327L9.81131 12.5337L9.80935 12.5327Z" fill="#E65E1A"/>
<path d="M6 19.0903C6 18.538 6.44772 18.0903 7 18.0903C7.55228 18.0903 8 18.538 8 19.0903V20.0005C8.00003 21.0561 8.20944 22.1012 8.61523 23.0757C9.02101 24.05 9.61515 24.9347 10.3643 25.6782C11.1135 26.4218 12.0029 27.0102 12.9805 27.4087C13.9581 27.8071 15.0058 28.0085 16.0615 28.0005C20.4584 27.9671 24 24.3166 24 19.8872V19.4702C24 18.3142 23.5991 17.1932 22.8662 16.2993C22.1334 15.4057 21.1137 14.7935 19.9805 14.5669L17.3057 14.0317C16.9187 13.9576 16.5182 14.0394 16.1904 14.2583C15.8616 14.4778 15.6326 14.8182 15.5535 15.2055C15.4745 15.5928 15.5512 15.9958 15.7676 16.3266C15.9828 16.6557 16.3191 16.8863 16.7031 16.9702L18.6172 17.353C18.9283 17.4152 19.1913 17.6215 19.3262 17.9087C19.461 18.196 19.4519 18.5309 19.3008 18.81C19.0465 19.2799 18.9491 19.8191 19.0234 20.3481C19.0979 20.877 19.34 21.368 19.7139 21.7495C20.1005 22.1439 20.0946 22.7779 19.7002 23.1645C19.3058 23.551 18.6727 23.5442 18.2861 23.1499C17.6128 22.4631 17.1769 21.5788 17.043 20.6264C16.9705 20.111 16.9905 19.5907 17.0947 19.0874L16.3037 18.9302L16.291 18.9282C15.389 18.7351 14.5997 18.1933 14.0947 17.4214C13.5897 16.6494 13.41 15.709 13.5945 14.8052C13.779 13.9014 14.312 13.1065 15.0791 12.5942C15.8462 12.082 16.7849 11.894 17.6904 12.0698L17.6963 12.0708L20.3721 12.6059C21.959 12.9232 23.387 13.7803 24.4131 15.0317C25.4391 16.2832 26 17.8518 26 19.4702V19.8872C26 25.3827 21.6042 29.9577 16.0762 29.9995C14.7568 30.0095 13.4484 29.7591 12.2266 29.2612C11.0045 28.7632 9.89273 28.0277 8.95605 27.0981C8.01936 26.1685 7.27587 25.0625 6.76855 23.8442C6.2613 22.626 5.99996 21.3191 6 19.9995V19.0903Z" fill="#E65E1A"/>
<path d="M7.57986 16.1842C8.29891 15.7042 9.16849 15.5083 10.0203 15.6305L10.1912 15.6598L11.4461 15.9108L11.45 15.9118C12.3595 16.0974 13.1578 16.6365 13.6697 17.4108C14.1817 18.1853 14.3651 19.132 14.1795 20.0416C13.9937 20.951 13.4547 21.7495 12.6804 22.2614C11.9066 22.7729 10.9614 22.956 10.0525 22.7711L8.80252 22.5202L8.7908 22.5182C7.88877 22.3251 7.09952 21.7833 6.59451 21.0114C6.0895 20.2394 5.90902 19.299 6.09353 18.3952C6.27806 17.4913 6.81271 16.6965 7.57986 16.1842ZM9.80545 17.6217C9.41856 17.5476 9.01789 17.6295 8.69021 17.8483C8.36151 18.0678 8.13256 18.4082 8.05349 18.7955C7.97449 19.1829 8.05194 19.5858 8.26834 19.9166C8.48374 20.2458 8.81971 20.4764 9.20388 20.5602L10.447 20.8112H10.45C10.8399 20.8907 11.2459 20.8128 11.5779 20.5934C11.9098 20.3739 12.1409 20.0311 12.2205 19.6412C12.3 19.2515 12.221 18.8462 12.0017 18.5143C11.7829 18.1833 11.442 17.9519 11.0535 17.8717L9.80545 17.6217Z" fill="#E65E1A"/>
<path d="M12.5818 2.07298C13.0313 1.95256 13.5007 1.9231 13.9617 1.98607C14.4228 2.04905 14.8667 2.2036 15.2674 2.44017C15.6681 2.67673 16.0179 2.99077 16.2957 3.364C16.5695 3.73188 16.7681 4.15002 16.8807 4.59446L19.1121 12.9216C19.2548 13.4549 18.9384 14.0033 18.4051 14.1462C17.8718 14.2891 17.3236 13.9724 17.1805 13.4392L14.949 5.11302C14.9474 5.10676 14.9457 5.09977 14.9441 5.09349C14.8963 4.90005 14.8102 4.71819 14.6912 4.55833C14.5721 4.39836 14.4225 4.26323 14.2508 4.16185C14.0791 4.06049 13.8888 3.99451 13.6912 3.96751C13.4936 3.94052 13.2921 3.95301 13.0994 4.00462C12.9069 4.05625 12.7267 4.1462 12.5691 4.26829C12.4115 4.39045 12.2795 4.5429 12.1814 4.71653C12.0835 4.89013 12.021 5.08203 11.9979 5.28001C11.9748 5.47787 11.9914 5.67846 12.0467 5.86985C12.0485 5.876 12.0509 5.88223 12.0525 5.88841L13.6375 11.8074C13.7804 12.3408 13.463 12.8891 12.9295 13.032C12.3961 13.1746 11.8477 12.8583 11.7049 12.3249L10.1199 6.40599L10.1209 6.40501C9.99631 5.96396 9.95832 5.50293 10.0115 5.04759C10.0656 4.58541 10.2115 4.13836 10.4402 3.73314C10.669 3.32794 10.9768 2.97227 11.3445 2.68724C11.7121 2.40242 12.1327 2.19338 12.5818 2.07298Z" fill="#E65E1A"/>
<path d="M21.7657 2.49955C22.5639 2.04899 23.5074 1.92935 24.3927 2.16655C25.278 2.40374 26.0352 2.97888 26.5011 3.76811C26.9669 4.55721 27.1047 5.4977 26.8849 6.38725C26.8833 6.39353 26.8817 6.40053 26.88 6.40678L24.3946 15.6802C24.2517 16.2136 23.7034 16.5301 23.17 16.3872C22.6366 16.2443 22.3202 15.6961 22.463 15.1626L24.9425 5.90287C25.0353 5.52281 24.9774 5.12171 24.7784 4.78471C24.5787 4.44654 24.2545 4.19983 23.8751 4.09819C23.4957 3.99654 23.0912 4.04767 22.7491 4.24077C22.4071 4.43387 22.155 4.75404 22.046 5.13139L19.7833 13.5728C19.6403 14.1061 19.0921 14.4227 18.5587 14.2798C18.0254 14.1369 17.7089 13.5886 17.8517 13.0552L20.1193 4.59526L20.1241 4.5767C20.3784 3.69631 20.9678 2.95014 21.7657 2.49955Z" fill="#E65E1A"/>
</svg>
