<svg width="32" height="32" viewBox="0 0 32 32" fill="none" xmlns="http://www.w3.org/2000/svg">
<path fill-rule="evenodd" clip-rule="evenodd" d="M13.5 1.75C14.4946 1.75 15.4481 2.14537 16.1514 2.84863C16.5061 3.20334 16.7819 3.62195 16.9688 4.07715C17.4459 3.86356 17.9671 3.75 18.5 3.75C19.4946 3.75 20.4481 4.14537 21.1514 4.84863C21.8546 5.55189 22.25 6.50544 22.25 7.5V10.9648C22.6477 10.8241 23.07 10.75 23.5 10.75C24.4946 10.75 25.4481 11.1454 26.1514 11.8486C26.8546 12.5519 27.25 13.5054 27.25 14.5V19C27.25 21.9837 26.0649 24.8453 23.9551 26.9551C21.8453 29.0649 18.9837 30.25 16 30.25C13.0163 30.25 10.1547 29.0649 8.04492 26.9551C5.93514 24.8453 4.75 21.9837 4.75 19V9.5C4.75 8.50544 5.14537 7.55189 5.84863 6.84863C6.55189 6.14537 7.50544 5.75 8.5 5.75C8.93 5.75 9.35225 5.82411 9.75 5.96484V5.5C9.75 4.50544 10.1454 3.55189 10.8486 2.84863C11.5519 2.14537 12.5054 1.75 13.5 1.75ZM13.5 4.25C13.1685 4.25 12.8506 4.38179 12.6162 4.61621C12.3818 4.85063 12.25 5.16848 12.25 5.5V15C12.25 15.6904 11.6904 16.25 11 16.25C10.3096 16.25 9.75 15.6904 9.75 15V9.5C9.75 9.16848 9.61821 8.85063 9.38379 8.61621C9.14937 8.38179 8.83152 8.25 8.5 8.25C8.16848 8.25 7.85063 8.38179 7.61621 8.61621C7.38179 8.85063 7.25 9.16848 7.25 9.5V19C7.25 21.3206 8.17156 23.5466 9.8125 25.1875C11.4534 26.8284 13.6794 27.75 16 27.75C18.3206 27.75 20.5466 26.8284 22.1875 25.1875C23.8284 23.5466 24.75 21.3206 24.75 19V14.5C24.75 14.1685 24.6182 13.8506 24.3838 13.6162C24.1494 13.3818 23.8315 13.25 23.5 13.25C23.1685 13.25 22.8506 13.3818 22.6162 13.6162C22.3818 13.8506 22.25 14.1685 22.25 14.5V17C22.25 17.6904 21.6904 18.25 21 18.25C20.0054 18.25 19.0519 18.6454 18.3486 19.3486C17.6454 20.0519 17.25 21.0054 17.25 22C17.25 22.6904 16.6904 23.25 16 23.25C15.3096 23.25 14.75 22.6904 14.75 22C14.75 20.3424 15.409 18.7532 16.5811 17.5811C17.454 16.7081 18.5582 16.1193 19.75 15.876V7.5C19.75 7.16848 19.6182 6.85063 19.3838 6.61621C19.1494 6.38179 18.8315 6.25 18.5 6.25C18.1685 6.25 17.8506 6.38179 17.6162 6.61621C17.3818 6.85063 17.25 7.16848 17.25 7.5V14C17.25 14.6904 16.6904 15.25 16 15.25C15.3096 15.25 14.75 14.6904 14.75 14V5.5C14.75 5.16848 14.6182 4.85063 14.3838 4.61621C14.1494 4.38179 13.8315 4.25 13.5 4.25Z" fill="#F86C26"/>
</svg>
