<svg width="32" height="32" viewBox="0 0 32 32" fill="none" xmlns="http://www.w3.org/2000/svg">
<path d="M27.0273 12.2148C27.4611 11.6779 28.2481 11.5938 28.7852 12.0273C29.3221 12.4611 29.4062 13.2481 28.9727 13.7852C26.7476 16.5397 22.5735 20.25 16 20.25C9.42646 20.25 5.25243 16.5397 3.02734 13.7852C2.59384 13.2481 2.67792 12.4611 3.21484 12.0273C3.75187 11.5938 4.53894 11.6779 4.97266 12.2148C6.95012 14.6627 10.4813 17.75 16 17.75C21.5187 17.75 25.0499 14.6627 27.0273 12.2148Z" fill="#E65E1A"/>
<path d="M24.4574 14.8013C25.0567 14.4587 25.8199 14.6668 26.1625 15.2661L29.0853 20.3794C29.4278 20.9788 29.2198 21.7429 28.6205 22.0855C28.0211 22.428 27.257 22.2199 26.9144 21.6206L23.9925 16.5064C23.65 15.907 23.858 15.1438 24.4574 14.8013Z" fill="#E65E1A"/>
<path d="M18.9087 17.4478C19.5895 17.3346 20.2337 17.7953 20.3472 18.4762L21.2329 23.7945C21.3464 24.4755 20.8865 25.1195 20.2056 25.233C19.5247 25.3465 18.8806 24.8865 18.7671 24.2057L17.8804 18.8863C17.7672 18.2055 18.2279 17.5613 18.9087 17.4478Z" fill="#E65E1A"/>
<path d="M11.6533 18.4762C11.7668 17.7952 12.4108 17.3344 13.0918 17.4478C13.7726 17.5613 14.2324 18.2055 14.1191 18.8863L13.2334 24.2057C13.1199 24.8864 12.4757 25.3462 11.7949 25.233C11.114 25.1195 10.6532 24.4755 10.7666 23.7945L11.6533 18.4762Z" fill="#E65E1A"/>
<path d="M5.83691 15.2661C6.17946 14.6667 6.94359 14.4587 7.54297 14.8013C8.14207 15.1439 8.35021 15.9071 8.00781 16.5064L5.08496 21.6206C4.74233 22.2196 3.97909 22.4278 3.37988 22.0855C2.7805 21.7429 2.57249 20.9788 2.91504 20.3794L5.83691 15.2661Z" fill="#E65E1A"/>
</svg>
